<mxfile host="app.diagrams.net" modified="2023-08-07T03:01:34.657Z" agent="Mozilla/5.0 (Macintosh; Intel Mac OS X 10_15_7) AppleWebKit/537.36 (KHTML, like Gecko) Chrome/114.0.0.0 Safari/537.36" version="21.6.6" etag="6wt4O2RDFektw9w1rusB" type="github">
  <diagram name="第 1 页" id="V85Wmq2sqzEz-lBhBWLn">
    <mxGraphModel>
      <root>
        <mxCell id="0" />
        <mxCell id="1" parent="0" />
      </root>
    </mxGraphModel>
  </diagram>
</mxfile>
